<svg xmlns="http://www.w3.org/2000/svg" viewBox="0 0 1573.59 260.89"><path d="M571.05,93.64c5.48-.19,10.69-2.65,16.24-2,.11,51.12,0,102.25.06,153.38.2,1.63-.4,4-2.53,3.53-21.08,0-42.17.15-63.25-.1-.08-39.5,0-79,0-118.5a8.58,8.58,0,0,0-1.07-3.76c-4,.23-8,2.19-11.88.35.17-8.3-.11-16.61.16-24.91,6.6-3.33,14.14-1,21.06-2.94a118.07,118.07,0,0,1,20.7-2.37C557.25,94.63,564.18,94.45,571.05,93.64Z" transform="translate(-195.2 -91.35)" fill="#fff"/><path d="M628.67,96A3.75,3.75,0,0,1,633,92.56c22.49,0,45,0,67.48,0,.72,1.37,1.82,2.69,1.78,4.33.1,4.89-.07,9.78,0,14.67,9.19,0,18.39,0,27.57-.39,5.05-1.14,10.27-.44,15.33-1.44,6.9-.86,13.91.13,20.79-1,6.65-.78,13.43.18,20-1.22,6.71.08,13.29-1.39,20-1.17,6.19,0,12.39-.3,18.58.1,0-4.72-.18-9.46.24-14.17q157.18-.18,314.39,0c.36,8.36.37,16.77,0,25.13-33.39.16-66.79,0-100.19.06-3.56.09-7.28-.52-10.62,1,.15,13.33,0,26.66.09,40,36.94.25,73.89-.08,110.84.16.18,8.82.19,17.66,0,26.48-36.93.25-73.87-.09-110.8.17-.09,46.89,0,93.78-.06,140.67-.28,1.63.28,3.95,2.47,3.45q154.58,0,309.18,0c5.69-.35,11.83-2.33,15.44-7,2-2.17,2.6-5.09,3.39-7.82,6.62-27.43,12.38-55.09,19.67-82.35,24.1.36,48.22-.19,72.32.27a65.94,65.94,0,0,1-2.57,17c-4.35,20.85-9,41.63-13.28,62.48-2,8.31-3.36,16.76-5.6,25-1.68,5.72-5.74,11.38-12,12.33-9.7,4-20.26,2.59-30.44,2.8q-459.5,0-919,0c-8.36.63-18.19-1.56-23-9.08-1.88-3.41-3.72-7.12-3.55-11.11.2-71.15-.05-142.3.13-213.45a10.91,10.91,0,0,0-4.58-1q-82,.11-164,0c-5.84.27-11.81-.74-17.53.79-1.27,4.43-.79,9-.85,13.59q0,90,0,180c-.18,8.65.39,17.35-.37,26-1.87,5.12-5.5,10.53-11.17,11.76-3.94,1.07-8,2-12.08,1.79-11.88-.22-23.79.39-35.65-.33-.14-86.16.07-172.31-.1-258.46,4.89-.64,9.83-.34,14.75-.39q141.51,0,283,0c1.36.47,4.84-.94,4.5,1.46.16,51.4,0,102.81.07,154.22-.07,25.9.14,51.14-.12,77,.26,2.91.42,2,16.48,2,8-.25,17.33-.14,22.31-.15,30.83-.19,61.57-.16,92.41-.31,0-12.73.12-25.46-.1-38.18-40-.1-79.93.17-119.9-.14-.07-8.55-.05-17.1,0-25.65,39.37-.43,78.75,0,118.11-.22a21.64,21.64,0,0,0,2.7-.57c-.11-5.14,0-10.29-.07-15.43q36.07-.3,72.16,0c0,5.32,0,10.65,0,16,40.34.23,80.69,0,121,.12.25,8.39.06,16.78.12,25.17-40.34.19-80.68,0-121,.1-.41,9.73-.08,19.47-.19,29.21.08,3.52-.48,7.16.82,10.54,43.1,0,86.2.14,129.3-.1,0-56.22-.14-112.45.07-168.67,21.86-.17,43.72-.1,65.58,0,.3,56.48,0,113,.15,169.44l1.39,1.29c19.14,0,38.29.21,57.43-.11q-.06-105.81,0-211.61c-28.08-.31-56.16,0-84.24-.13-16.11-.17-32.24.35-48.34-.29-.33,4.65-.1,9.31-.23,14-12.32,1.4-24.68,2.1-37,3.14-9.53-.24-19,1.09-28.42,2-4,.17-8-.08-12,.51-5.84,1-11.81,0-17.62,1.15-3.36.56-6.81.19-10.15.9-5.53,1.18-11.4-.48-16.75,1.7.26,20.76,0,41.54.13,62.3.74,4.41,4.59,8.85,9.35,8.7,37.46,0,74.93-.06,112.39,0,.28,8.84.21,17.69,0,26.53-54.45.16-108.9,0-163.36.07-5.84-.1-11.84.48-17.5-1.32a21.24,21.24,0,0,1-10.85-9.24c-1.5-3.75-2.89-7.67-3-11.74q0-35.4,0-70.81c-9.37-.06-18.73.23-28.09.18,0-8.87-.22-17.75.15-26.62a85,85,0,0,0,12.24-1c5.21-.3,10.43-.07,15.65-.26C628.77,110.3,628.5,103.16,628.67,96Z" transform="translate(-195.2 -91.35)" fill="#fff"/><path d="M1154,91.71c15-.44,30,0,45-.18,5.91.15,11.85-.39,17.74.37a81.54,81.54,0,0,1-1.07,14.39c-.17,12.3-1.66,24.5-3.05,36.71-.15,15.08-3.23,29.94-3.19,45-.61,7-2.18,13.9-2,21a164.46,164.46,0,0,1-2.26,27c-1,4.93-.7,10-.8,15,.18,4.5-.87,8.91-1.06,13.39-.46,2.17-.54,5.51-3.39,5.78-21,.12-42.08.08-63.12,0-.56-10.1,1-20.11,2.53-30,.89-10.41,1.69-20.8,3.12-31.14,0-11.08,1.9-22,3-33-.18-13.45,3.38-26.62,3.15-40.08,1.65-11.23,2.5-22.53,3.18-33.85C1152.77,98.67,1151.69,94.65,1154,91.71Z" transform="translate(-195.2 -91.35)" fill="#fff"/><path d="M1255.43,92.82l1.48-1.22c25.13-.23,50.27.08,75.4-.15,1.64,3.29,1,7,1.11,10.55q0,68,0,136c-.07,3.7-.89,7.34-1,11a23.69,23.69,0,0,1-17.24,19.16c-5.19,2-10.79,1.23-16.19,1.3q-17,0-34,0c-3.24-.06-6.64.45-9.65-1C1255.5,209.93,1255.33,151.38,1255.43,92.82Z" transform="translate(-195.2 -91.35)" fill="#fff"/><path d="M1371.52,92.87l1.4-1.31q31-.09,62.1,0c2.86,1.29,2.22,5.13,3,7.68.7,6.53,1,13.12,2,19.62.54,3.45,1.44,6.87,1.46,10.38,0,10,3.32,19.78,3.13,29.84,1.18,8.68,3,17.31,3.05,26.1,2.14,11,2.79,22.12,4,33.2a29.89,29.89,0,0,1-6.6,1q-22.53,0-45,0c-4.52-.08-9.14.46-13.52-.89-1.33-5.72-.94-11.67-2.49-17.37-1-9-1.37-18-3.3-26.82-.25-8.75-1.69-17.38-3.06-26,.08-8.82-2.18-17.4-3-26.14C1374.66,112.29,1371.48,102.74,1371.52,92.87Z" transform="translate(-195.2 -91.35)" fill="#fff"/><path d="M1472.4,94.79c.83-1.36,1.38-3.73,3.5-3.38q130-.09,260.1,0c10.91.1,21.83-.23,32.74.21-.2,8.56.19,17.13-.23,25.69-16,.11-32.07-.11-48.09.11-.11,10.75,0,21.5-.07,32.25,16.05.25,32.11,0,48.16.12.3,9.49.28,19,0,28.5-16.24.13-32.48-.18-48.71.17-.47,29.51-.07,59-.2,88.57.16,5.53-.63,11.17.94,16.57,13.83.09,27.67,0,41.5,0a22.23,22.23,0,0,1,6.73,1.2c-.23,8.09,0,16.18-.11,24.27-16.28,1.23-32.68,0-49,.62-.18,13.62,0,27.24-.12,40.86-23.73.2-47.46,0-71.19.07-.19-13.63,0-27.26-.11-40.89-64.8-.39-129.61,0-194.41-.18l-1.35-1.42c-.08-7.76.07-15.52,0-23.28,1.84-1.08,5.63-.77,5.13-3.76.09-43.47,0-86.94.05-130.41,4.65-1.52,9.56-.78,14.36-.92,58.54-.1,117.07.18,175.6-.14,0-10.66-.08-21.32,0-32-4-1.53-8.4-.94-12.61-1q-49,0-98.07,0c-1.82-.23-2.83,1.59-3.61,2.9-2.54,4.49-4.41,9.33-6.77,13.91-24.76.08-49.54.31-74.28-.11C1458.62,120.27,1466.07,107.83,1472.4,94.79Zm39.37,83c-.08,34.41,0,68.82,0,103.23-.57,2.51,2.1,3.57,4.17,3.27,44.1-.11,88.2.14,132.31-.13.16-35.47.1-70.93,0-106.4-19.08-.3-38.17-.05-57.25-.13C1564.59,177.75,1538.17,177.44,1511.77,177.81Z" transform="translate(-195.2 -91.35)" fill="#fff"/><path d="M372.75,130.74c21.26-.07,42.53-.14,63.8,0-1.39,5.17-4.8,9.45-6.83,14.36-17.43,34-34.7,68.06-52.23,102a4.94,4.94,0,0,0,.69,4.38c13.8,22.85,26.94,46.09,40.43,69.13,5.73,10.05,12,19.81,17.48,30-17.07.31-34.17.25-51.24,0-2.36-1.91-3.42-5-5.16-7.45-8.69-14.71-18.31-28.89-26.48-43.91-1.06.44-2.42.58-3,1.71-8.93,16.61-17.69,33.33-26.87,49.81-20.53-.11-41.07.1-61.6-.11.39-4.13,2.78-7.54,4.64-11.1,17.35-33.32,34.52-66.74,52-100a5.25,5.25,0,0,0-.32-3.82c-19-33.36-37.67-66.93-56.74-100.26a15.64,15.64,0,0,1-1.23-4.08c17,0,34-.14,51,.1,10.67,18.44,20.45,37.4,30.93,56a33.28,33.28,0,0,0,3.26-4.57q9-17.41,18.17-34.73C366.42,142.33,369.21,136.33,372.75,130.74Z" transform="translate(-195.2 -91.35)" fill="#fff"/></svg>