<svg xmlns="http://www.w3.org/2000/svg" viewBox="0 0 1920.03 737.09"><path d="M1675,133.35a29.83,29.83,0,0,1,23.32,1.89,31.37,31.37,0,0,1,15.9,22.77c1.54,9.57-.68,19.25-3.53,28.36-3.6,11-7.89,21.82-12.3,32.55-13.39,32.3-28,64.11-40.18,96.89-4.66,13-9.59,26.06-11.6,39.78-.85,4.66.91,9.24,3.28,13.17,16.25-.11,29.13-11.55,40.74-21.58,23.54-21.12,44.83-44.62,65.26-68.73,20-24,39.28-48.67,56-75.06,6.23-14.24,12-28.77,19.69-42.31a37.5,37.5,0,0,1,7.51-9.48,28.75,28.75,0,0,1,46.4,14.3c1.57,5.51,1.1,11.36-.33,16.84-4.23,16.39-12.81,31.17-21.13,45.74a380.14,380.14,0,0,0-22.24,86.58c11-8.29,22.25-16.37,33.75-24a28.66,28.66,0,0,1,42.13,12.75c5.31,11.95,1,27.21-9.78,34.57-27,18.18-52.94,38-76.49,60.47-2,2-4.79,3.62-5.18,6.64-5.16,23-10.64,45.9-17.55,68.42-4,15-7.79,30.09-12.13,45-14.54,50.3-33,99.76-58.37,145.65-8.29,15.13-17.93,29.65-30,42.07-11.14,11.5-24.51,21.22-39.78,26.34-6.83,2.48-14.11,3.06-21.17,4.52h-2.14c-6.6-1.39-13.45-1.88-19.72-4.53-15.92-6.66-30.15-18.4-37.79-34.08-8.4-16.71-8.7-36.37-4.45-54.29,4.14-17.22,10.94-33.67,18.09-49.83,12.22-26.87,26.07-53.07,42.43-77.66,6.38-9.76,14.16-18.48,21.49-27.51,11.89-14.41,23.56-29,36.09-42.88,21.45-23.52,44.89-45.11,67.65-67.34,2.17-2.44,5.68-4.22,6.06-7.79,2.35-11.68,4.71-23.37,6.61-35.14-21.33,23.51-43.19,46.82-68.36,66.28-15.91,12.41-35,21.29-55.26,23.11-15.21,1.41-31.13-2.51-43.18-12.09-15.84-12.44-24.37-32.48-25.65-52.26-.46-15.62,3.88-30.86,8.42-45.64,6.1-19.06,13.57-37.64,21.25-56.11-5-1-10-2.7-14-6a28.79,28.79,0,0,1-9.51-32.14c2.59-7.91,9.36-13.21,14.52-19.39q24.49-27.12,47.84-55.21C1662.39,141.43,1667.79,135.76,1675,133.35Zm37.65,388.79c-8.14,10.2-17.09,19.81-24.05,30.89a499.27,499.27,0,0,0-29.33,52.76c-7.2,15-13.91,30.36-18.8,46.32-1.65,6-3.47,12.21-2.41,18.44.62,4.25,4.18,7.38,8.06,8.8,6.31-.43,11.7-4.38,16.42-8.28,13.09-11.54,21.64-27.07,29.78-42.25,24.58-46.6,41.65-96.77,55.12-147.59C1735.24,494.35,1724,508.33,1712.64,522.14Z" transform="translate(0.05 -0.45)" fill="#fff" stroke="#fff" stroke-miterlimit="10.43" stroke-width="0.09"/><path d="M1378.26,252.75A104.9,104.9,0,0,1,1424,235.81c20.48-2.18,41.9,5.55,55.78,20.87,11.32,12.29,17,29.18,16.69,45.77-.27,19.35-7,38.2-16.74,54.75-15.46,24.68-38.27,43.86-62.56,59.48a245.74,245.74,0,0,1-54,26.06c-5.22,1.91-10.85,2.84-16,4.61a70.2,70.2,0,0,0,1.05,22.26,33.36,33.36,0,0,0,13.85,20c7.29,4.83,16.43,5.89,25,5.05,15.17-1.49,29.46-7.82,42.23-15.91a145,145,0,0,0,60.46-80.77c2.07-6.67,2.61-14.06,7.06-19.74,7.56-10.91,23.06-15.19,35.09-9.47a28.79,28.79,0,0,1,16.78,23.81c.52,5.42-1,10.71-2.35,15.91-9.56,36.8-30.11,70.5-57.83,96.44-23.05,21.45-51.22,38.25-82.25,44.76-20.37,4.21-42.18,3.47-61.52-4.63-17.4-7.15-32-20.39-41.79-36.32-12.69-20.4-15-45.33-12.89-68.77a48.16,48.16,0,0,1-18.28-23.88,28.58,28.58,0,0,1,.87-21.16c4.66-11,16.62-17.95,28.45-17,8.62-31.5,21.08-62.38,40.31-89C1351.5,274.93,1363.76,262.29,1378.26,252.75Zm28.81,49.88c-10.32,7.68-18.38,18-25.14,28.82-9.83,16-17,33.46-22.6,51.35a208.76,208.76,0,0,0,38.49-22.48c10.62-7.9,20.76-16.66,28.91-27.15a65.69,65.69,0,0,0,11.11-22.65c1.05-4.19,1.91-8.67.75-12.93-1-3.57-5.2-4.93-8.53-4.73C1421.67,293.86,1413.82,297.66,1407.07,302.63Z" transform="translate(0.05 -0.45)" fill="#fff" stroke="#fff" stroke-miterlimit="10.43" stroke-width="0.09"/><path d="M1169.66.5h3.78a31.67,31.67,0,0,1,10,2.48c12.36,5.22,19.67,19.92,16.19,32.92-23.53,83.54-48,166.8-71.8,250.28-12.15,42.95-24.29,85.93-35,129.28-4.4,18.54-9,37.11-11.24,56.07-1.09,8.08.07,16.62,4.42,23.63,10-3.7,17.8-11.22,25.88-17.85,29.23-25.56,51-58.27,70.35-91.61a28.64,28.64,0,0,1,52.52,14.79c.41,6.56-2,12.89-5.49,18.34-24.22,41.64-53,81.67-91.43,111.43-13,10.42-28,19.49-44.79,21.72a55.35,55.35,0,0,1-43.65-12.79c-13-11.05-20.58-27.25-23.8-43.74-3.4-15.89-1.07-32.2,1.66-48,7-38.22,17.42-75.72,27.53-113.22,27.86-100.83,57.73-201.08,86.2-301.73,1.58-5.09,2.6-10.38,4.7-15.3A29.17,29.17,0,0,1,1169.66.5Z" transform="translate(0.05 -0.45)" fill="#fff" stroke="#fff" stroke-miterlimit="10.43" stroke-width="0.09"/><path d="M920.47,226.21c16.76-3.05,34-.32,50.08,4.92,12.07,3.92,23.58,9.35,35.05,14.74,12.94,6.57,18.82,23.74,12.62,36.87-5.67,13.6-22.72,20.79-36.38,15.17C968.84,292.27,956,285.6,942,283c-5.75-1-12.23-1.19-17.25,2.24-5.48,3.69-7.58,10.36-9.36,16.39-4.63,18-2.1,37.06,2.58,54.82,9.55,32,16.73,65.33,14.45,98.88a102.39,102.39,0,0,1-12.9,43.57c-7.52,14.38-17.79,27.6-31.19,36.93C874,546,856.44,551.09,839,551.65c-18.76.61-38.26-2.62-54.37-12.73a72.5,72.5,0,0,1-30.36-38.72c-2.43-7.56-4.78-15.76-2.47-23.66,3-12.14,14.71-21.38,27.25-21.35a28.73,28.73,0,0,1,26.55,16.7c2.46,4.89,2,11,5.74,15.26,3.83,4.56,10,6.08,15.64,6.77,9.18,1,19.2.86,27.26-4.25,8.23-5.29,13.12-14.18,17.18-22.8,3.72-7.52,4.07-16.1,4.25-24.34-.15-20.53-4.36-40.8-10-60.47-5.21-16.76-9-34.05-9.91-51.61-1.21-22.64,2.2-46,13-66.2C879.13,244.69,898.52,229.92,920.47,226.21Z" transform="translate(0.05 -0.45)" fill="#fff" stroke="#fff" stroke-miterlimit="10.43" stroke-width="0.09"/><path d="M562.8,252.29a105.37,105.37,0,0,1,44.09-16.71,67.28,67.28,0,0,1,49.53,13.52,63.3,63.3,0,0,1,23.15,38.24c3.48,18-.31,36.68-7.34,53.38-11.13,27.27-33,48.45-56.25,65.73-25.42,18.29-53.82,33.32-84.54,40.26-.48,9.69-.77,19.91,3.35,28.94,4.53,9.53,13.73,16.93,24.34,18.28,15.15,2.1,30.33-2.75,43.75-9.46,37.18-19.19,64.9-55.64,73.67-96.54,3.1-14.67,19.05-25,33.69-21.54,14.61,2.64,25.27,18,22.52,32.64-7.58,36.77-26.31,71-52.31,98-20.77,21.5-46.25,38.88-74.75,48.26-21.78,7.13-45.76,9.13-67.91,2.49-29.44-8.58-53.1-33.78-60.59-63.42-3.8-14.56-4-29.8-2.77-44.72C464.88,433,457.52,422.9,455,411.48c-2.72-12.9,4.88-27,17.12-31.81,4.2-1.86,8.83-2.27,13.38-2.25C494,345.87,506.6,315,525.85,288.37,536.05,274.42,548.31,261.8,562.8,252.29Zm32.38,47.43c-11,7.07-19.65,17.32-26.8,28.19-10.89,16.79-18.64,35.42-24.61,54.47a207.22,207.22,0,0,0,45.37-27.75c10.92-9,21.72-19,28.25-31.74,3.44-7.56,7-15.78,6-24.26-.31-4.58-5.44-6.7-9.46-6.11A47.49,47.49,0,0,0,595.18,299.72Z" transform="translate(0.05 -0.45)" fill="#fff" stroke="#fff" stroke-miterlimit="10.43" stroke-width="0.09"/><path d="M393.32,64.41c.31-15.53,15.12-28.76,30.59-27.32,14.88.63,27.48,14.49,26.73,29.36-1.54,77.07-11.76,153.82-27.91,229.13-8.74,40.16-19.27,80-32.6,118.86-9.66,27.75-20.52,55.29-35.46,80.67-8.35,13.82-17.91,27.44-31.09,37.07-10.54,7.76-24.07,12-37.13,9.61-14.91-2.85-28.45-11-39.08-21.69-12.65-12.67-21.53-28.61-28.06-45.16-10.18-25.9-14.82-53.59-17-81.22-3.44-42.52-4.69-85.23-9.68-127.62-11.24,31.74-22.22,63.57-33.47,95.31-17.29,48.56-34.51,97.21-54.57,144.71-6.45,14.81-12.94,29.69-21.5,43.43-5.52,8.64-12.62,17.09-22.58,20.62a40.17,40.17,0,0,1-39.72-8.46c-9.17-8.23-13.83-20.17-16.29-32C.87,512.64.61,495.1,0,477.71V453.82C1.35,393,4.42,332.23,7.17,271.45q3.3-70.95,6.32-141.93c.2-4.68.1-9.47,1.55-14a28.68,28.68,0,0,1,56,9.93c-2.93,71.35-6.36,142.68-9.58,214-1.81,43.48-4,87-4,130.49,28.71-71.19,53.11-144,78.67-216.35,6.7-18.76,13-37.71,21-56,5.5-12.49,11.18-25,18.53-36.52,4.75-7.47,11.34-14.28,19.91-17.18a30,30,0,0,1,28.1,4.81,31.26,31.26,0,0,1,11,18q7.78,36.66,12.6,73.86c5.77,43.08,8,86.5,10.71,129.84,2.16,31.1,4.61,63.19,18.23,91.74,4,8,8.92,16,16.3,21.31,8.44-8.89,14.3-19.81,19.89-30.61,13.41-26.89,23.32-55.36,32.17-84,17.29-57,29.5-115.51,37.94-174.46C388.62,151.35,392.57,107.92,393.32,64.41Z" transform="translate(0.05 -0.45)" fill="#fff" stroke="#fff" stroke-miterlimit="10.43" stroke-width="0.09"/></svg>